<?xml version="1.0" standalone="no"?><!DOCTYPE svg PUBLIC "-//W3C//DTD SVG 1.1//EN" "http://www.w3.org/Graphics/SVG/1.1/DTD/svg11.dtd"><svg t="1769921448839" class="icon" viewBox="0 0 1024 1024" version="1.1" xmlns="http://www.w3.org/2000/svg" p-id="10187" xmlns:xlink="http://www.w3.org/1999/xlink" width="200" height="200"><path d="M501.76 471.04a450.56 450.56 0 0 1 450.56 450.56 40.96 40.96 0 0 1-40.96 40.96h-819.2A40.96 40.96 0 0 1 51.2 921.6a450.56 450.56 0 0 1 450.56-450.56z m0 81.92a368.6912 368.6912 0 0 0-365.4144 319.6416l-0.9728 8.0384h732.7232l-0.9216-8.0384a368.7424 368.7424 0 0 0-353.024-319.4368z m0-501.76a204.8 204.8 0 1 1 0 409.6 204.8 204.8 0 0 1 0-409.6z m0 81.92a122.88 122.88 0 1 0 0 245.76 122.88 122.88 0 0 0 0-245.76z" fill="#4D6BFF" p-id="10188"></path></svg>