<?xml version="1.0" standalone="no"?><!DOCTYPE svg PUBLIC "-//W3C//DTD SVG 1.1//EN" "http://www.w3.org/Graphics/SVG/1.1/DTD/svg11.dtd"><svg t="1769920749811" class="icon" viewBox="0 0 1024 1024" version="1.1" xmlns="http://www.w3.org/2000/svg" p-id="1660" xmlns:xlink="http://www.w3.org/1999/xlink" width="200" height="200"><path d="M703.14801481 879.37629847c0 20.6487053-16.51896425 37.16766955-37.16766954 37.16766955h-536.86633789c-20.6487053 0-37.16766955-16.51896425-37.16766955-37.16766955V147.23220474c0-20.6487053 16.51896425-37.16766955 36.57770653-37.16766956h539.22618992c20.6487053 0 36.57770654 16.51896425 36.57770654 37.16766956v241.88483354l70.79556104-70.79556103v-171.08927251c1.76988902-60.7661899-38.93755858-110.91304564-89.67437733-110.91304564h-572.26411839c-50.73681873 0-92.62419237 50.14685574-92.62419235 109.1431566V877.60640946c0 60.7661899 50.14685574 109.1431566 109.14315661 109.1431566h536.86633788c25.95837238 0 50.73681873-8.84944513 69.025672-24.18848337 5.89963009-5.30966707 9.43940814-8.84944513 14.74907522-14.74907522 15.33903822-20.0587423 24.18848335-43.06729963 24.18848335-69.025672V746.63462153L703.7379778 818.61010858v60.76618989z" fill="#008577" p-id="1661"></path><path d="M550.93755858 301.802513c0-20.6487053-16.51896425-37.16766955-37.16766956-37.16766954H203.44934647c-20.6487053 0-37.16766955 16.51896425-37.16766955 37.16766954s16.51896425 37.16766955 37.16766955 37.16766955h310.91050559c20.0587423 0 36.57770654-16.51896425 36.57770652-37.16766955zM195.77982736 487.05089772c-15.33903822 0-28.31822443 16.51896425-28.3182244 37.16766956s12.9791862 37.16766955 28.3182244 37.16766953h243.06475957c15.33903822-0.589963 28.31822443-17.10892725 28.31822444-37.16766953 0-20.6487053-12.9791862-37.16766955-28.31822444-37.16766956H195.77982736z m775.80135638-153.39038225c-20.6487053-20.6487053-47.7870037-33.03792848-76.69519112-33.03792848s-57.22641185 11.20929717-77.87511716 31.85800246l-277.28261406 278.46254008c-20.6487053 20.0587423-31.85800247 46.6070777-33.03792847 76.10522814 0 13.5691492 2.35985206 27.7282614 7.66951913 40.70744758L467.75277435 774.36288294c-4.12974107 4.12974107 5.30966707 18.28885327 18.28885327 33.0379285 14.74907522 14.74907522 29.49815043 22.41859434 33.03792848 18.28885326l43.06729964-43.06729965c16.51896425 9.43940814 34.80781751 13.5691492 53.68663378 13.56914922 28.31822443 0 56.04648583-11.20929717 76.69519115-31.26803948l278.46254005-278.46254007c20.6487053-20.0587423 31.85800247-46.6070777 33.03792849-76.10522813 0.589963-28.31822443-11.79926016-56.04648583-32.44796547-76.69519112zM640.61193588 712.41676702c-7.0795561 5.89963009-15.33903822 9.43940814-24.18848334 9.43940814-9.43940814 0-18.28885327-3.53977805-24.18848336-9.43940814-7.0795561-7.0795561-10.61933416-15.33903822-10.61933415-24.77844636 0-8.84944513 3.53977805-17.10892725 9.43940814-23.59852034l123.3022688-123.30226881 48.37696672 48.3769667L640.61193588 712.41676702zM919.07447598 433.95422695l-103.83348953 103.83348951-48.37696671-48.37696671 102.65356351-102.6535635c7.0795561-7.0795561 15.33903822-10.61933416 24.18848336-10.61933415s17.10892725 3.53977805 23.59852035 9.43940813l0.589963 0.58996301c7.0795561 7.0795561 10.61933416 15.33903822 10.61933415 24.77844635s-3.53977805 17.10892725-9.43940813 23.00855736z" fill="#008577" p-id="1662"></path></svg>